<?xml version="1.0" encoding="UTF-8"?>
<svg width="49px" height="49px" viewBox="0 0 49 49" version="1.1" xmlns="http://www.w3.org/2000/svg" xmlns:xlink="http://www.w3.org/1999/xlink">
    <!-- Generator: Sketch 64 (93537) - https://sketch.com -->
    <title>np_question_670398_FFFFFF</title>
    <desc>Created with Sketch.</desc>
    <g id="Page-1" stroke="none" stroke-width="1" fill="none" fill-rule="evenodd">
        <g id="Typography" transform="translate(-502.000000, -665.000000)" fill="#FFFFFF" fill-rule="nonzero">
            <g id="np_question_670398_FFFFFF" transform="translate(502.000000, 665.000000)">
                <path d="M24.5,0 C18.0022872,0 11.7714681,2.58193511 7.17589362,7.17589362 C2.58214362,11.7716766 0,18.0028085 0,24.5 C0,30.9971915 2.58193511,37.2285319 7.17589362,41.8241064 C11.7716766,46.4178564 18.0028085,49 24.5,49 C30.9971915,49 37.2285319,46.4180649 41.8241064,41.8241064 C46.4178564,37.2283234 49,30.9971915 49,24.5 C49,18.0028085 46.4180649,11.7714681 41.8241064,7.17589362 C37.2283234,2.58214362 30.9971915,0 24.5,0 Z M24.1660598,40.6189149 C23.0318662,40.6189149 22.0096949,39.9347394 21.5759406,38.8860872 C21.1422229,37.8394681 21.3804619,36.631983 22.1827587,35.8296862 C22.9850555,35.0273894 24.1925406,34.789166 25.2391598,35.2228681 C26.2878119,35.6565859 26.9699545,36.6787936 26.9699545,37.8129872 C26.9679184,39.3605532 25.7135736,40.6148489 24.1660598,40.6189149 Z M27.2305928,27.0026489 C27.2305928,27.0026489 26.9536646,27.1024265 26.9536646,27.2632872 L26.9536646,29.4888777 L26.9557012,29.4888777 C26.9557012,31.0302926 25.7054714,32.2805745 24.1640044,32.2805745 C22.6225374,32.2805745 21.3723076,31.0303447 21.3723076,29.4888777 L21.3723076,27.2632872 C21.3967424,24.7301957 23.0359097,22.4964734 25.442748,21.7106489 C27.1063501,21.1567926 28.205931,19.5746138 28.1489033,17.8234894 C28.0369123,15.6813553 26.2837235,13.9953383 24.1395565,13.9648436 C22.6225374,13.9729891 21.2440214,14.8465309 20.5903927,16.2169149 C19.920448,17.6056479 18.2527799,18.1900511 16.8640991,17.5201064 C15.4733331,16.8501617 14.8909629,15.1824936 15.5609076,13.7938128 C16.3306246,12.1810872 17.5381097,10.8168543 19.0489778,9.85979043 C20.5578129,8.90277872 22.3069565,8.38963404 24.0927459,8.38150213 L24.1497631,8.38150213 C26.6339589,8.39779202 29.0143163,9.36906064 30.7981248,11.0978223 C32.5818812,12.8245511 33.6285004,15.1743617 33.7221738,17.6565245 C33.7914045,19.7029521 33.1968312,21.718833 32.0280248,23.4025564 C30.8592184,25.0845074 29.1793525,26.3449021 27.2367631,26.9964979 L27.2305928,27.0026489 Z" id="Shape"></path>
            </g>
        </g>
    </g>
</svg>